<?xml version="1.0" standalone="no"?>
<!DOCTYPE svg PUBLIC "-//W3C//DTD SVG 20010904//EN"
 "http://www.w3.org/TR/2001/REC-SVG-20010904/DTD/svg10.dtd">
<svg version="1.0" xmlns="http://www.w3.org/2000/svg"
 width="700.000000pt" height="700.000000pt" viewBox="0 0 700.000000 700.000000"
 preserveAspectRatio="xMidYMid meet">
<metadata>
Created by potrace 1.11, written by Peter Selinger 2001-2013
</metadata>
<g transform="translate(0.000000,700.000000) scale(0.100000,-0.100000)"
fill="#000000" stroke="none">
<path d="M3405 6986 c-117 -36 -195 -116 -235 -239 -17 -55 -17 -644 0 -718
58 -243 348 -338 548 -180 50 40 104 127 117 191 13 60 9 650 -5 700 -41 152
-162 250 -314 256 -39 1 -89 -3 -111 -10z"/>
<path d="M1209 6069 c-25 -4 -68 -18 -95 -32 -179 -93 -241 -308 -138 -482 29
-49 455 -474 504 -502 96 -56 217 -63 315 -18 186 85 257 328 146 496 -16 24
-132 146 -258 270 -204 202 -234 228 -285 247 -65 24 -122 31 -189 21z"/>
<path d="M5670 6068 c-96 -17 -138 -50 -383 -297 -212 -214 -236 -241 -256
-295 -42 -112 -30 -225 32 -318 105 -157 318 -199 473 -93 62 43 475 459 497
500 132 258 -81 554 -363 503z"/>
<path d="M3448 5255 c-2 -2 -41 -6 -88 -9 -47 -3 -96 -8 -110 -10 -14 -3 -43
-7 -65 -11 -22 -3 -67 -12 -100 -21 -511 -128 -935 -472 -1160 -939 -96 -200
-145 -370 -171 -600 -9 -83 -3 -336 10 -415 56 -322 160 -569 345 -815 64 -85
252 -271 341 -336 265 -196 558 -311 880 -344 66 -7 295 -7 330 -1 14 3 52 8
84 11 33 3 62 8 65 10 3 1 24 6 46 9 149 24 414 129 565 224 434 275 725 708
809 1207 17 98 21 153 20 290 0 134 0 140 -14 240 -75 575 -460 1093 -998
1345 -94 44 -272 106 -332 116 -22 3 -43 8 -46 9 -17 11 -149 27 -254 31 -66
3 -128 6 -137 8 -9 2 -18 3 -20 1z"/>
<path d="M274 3834 c-108 -24 -196 -94 -243 -194 -37 -78 -37 -200 0 -280 29
-61 95 -132 149 -160 74 -38 115 -42 442 -42 273 0 325 3 370 17 183 60 283
259 218 437 -42 117 -148 206 -264 224 -81 11 -617 10 -672 -2z"/>
<path d="M6073 3838 c-75 -8 -169 -55 -213 -105 -17 -19 -42 -57 -58 -86 -24
-46 -27 -62 -27 -147 1 -105 15 -145 80 -226 38 -47 130 -99 193 -109 77 -13
658 -8 699 6 167 53 267 201 249 366 -15 140 -106 246 -250 293 -43 14 -563
20 -673 8z"/>
<path d="M1590 1989 c-95 -18 -137 -51 -378 -293 -264 -264 -285 -295 -284
-424 0 -101 34 -182 104 -250 118 -115 293 -127 433 -32 22 16 139 128 261
251 196 199 223 230 242 281 52 139 24 279 -75 374 -86 81 -191 114 -303 93z"/>
<path d="M5267 1984 c-69 -18 -108 -38 -150 -79 -109 -106 -139 -239 -86 -382
20 -53 44 -80 263 -299 243 -243 272 -266 366 -291 61 -16 149 -5 215 27 128
62 195 164 197 304 2 135 -18 165 -295 442 -220 219 -247 243 -300 263 -71 26
-147 32 -210 15z"/>
<path d="M3415 1221 c-74 -19 -152 -73 -193 -134 -60 -87 -64 -118 -64 -456
-1 -168 3 -326 7 -351 17 -102 94 -201 195 -248 46 -22 69 -27 140 -27 73 0
93 4 142 28 31 15 72 42 91 60 48 44 95 132 103 192 9 68 9 598 0 660 -16 104
-80 193 -178 245 -52 28 -75 34 -138 36 -41 2 -88 0 -105 -5z"/>
</g>
</svg>
