<?xml version="1.0" standalone="no"?>
<!DOCTYPE svg PUBLIC "-//W3C//DTD SVG 20010904//EN"
 "http://www.w3.org/TR/2001/REC-SVG-20010904/DTD/svg10.dtd">
<svg version="1.0" xmlns="http://www.w3.org/2000/svg"
 width="512.000000pt" height="512.000000pt" viewBox="0 0 512.000000 512.000000"
 preserveAspectRatio="xMidYMid meet">
<metadata>
Created by potrace 1.11, written by Peter Selinger 2001-2013
</metadata>
<g transform="translate(0.000000,512.000000) scale(0.100000,-0.100000)"
fill="#000000" stroke="none">
<path d="M2525 4949 c-42 -24 -45 -36 -45 -216 l0 -173 -360 0 -360 0 0 45 c0
56 -21 100 -52 109 -13 3 -246 6 -518 6 -473 0 -496 -1 -520 -20 l-25 -19 -3
-1629 -2 -1629 -72 -29 c-176 -71 -312 -214 -373 -394 -24 -69 -29 -107 -28
-211 1 -152 44 -271 141 -392 78 -97 171 -161 302 -208 l65 -24 2100 -3 c1155
-1 2110 0 2123 3 12 3 31 14 42 25 18 18 20 34 20 158 0 75 -3 147 -6 160 -9
31 -53 52 -109 52 l-45 0 0 239 0 239 61 4 c95 7 100 17 97 205 -4 192 0 187
-138 191 l-100 4 0 1484 c0 1608 3 1533 -52 1548 -13 3 -222 6 -465 6 l-442 0
-3 220 c-3 195 -5 221 -21 237 -17 17 -57 18 -605 20 -414 2 -593 -1 -607 -8z"/>
</g>
</svg>
